<?xml version="1.0" encoding="iso-8859-1"?>
<!-- Generator: Adobe Illustrator 16.0.0, SVG Export Plug-In . SVG Version: 6.00 Build 0)  -->
<!DOCTYPE svg PUBLIC "-//W3C//DTD SVG 1.1//EN" "http://www.w3.org/Graphics/SVG/1.1/DTD/svg11.dtd">
<svg version="1.1" id="Capa_1" xmlns="http://www.w3.org/2000/svg" xmlns:xlink="http://www.w3.org/1999/xlink" x="0px" y="0px"
	 width="435.496px" height="435.496px" viewBox="0 0 435.496 435.496" style="enable-background:new 0 0 435.496 435.496;"
	 xml:space="preserve">
<g>
	<g>
		<path d="M350.914,17.811C336.771,7.082,319.188,0.637,300.053,0.637H84.398C37.791,0.637,0,38.437,0,85.035v215.664
			C0,321,7.181,339.617,19.125,354.191c9.62,46.004,50.48,80.668,99.297,80.668h215.645c55.93,0,101.43-45.508,101.43-101.447
			V117.739C435.496,67.545,398.832,25.872,350.914,17.811z M321.721,301.033h7.01v36.529h-8.252v-28.938h-0.115l-6.971,3.309
			l-1.396-6.406L321.721,301.033z M180.224,219.398c-37.638-12.546-52.02-32.838-51.647-54.239
			c0-33.947,28.773-59.393,73.412-59.393c21.027,0,39.484,5.164,50.539,10.69l-9.582,38.748
			c-8.129-4.428-23.983-10.337-39.111-10.337c-13.655,0-21.391,5.546-21.391,14.382c0,8.864,7.009,13.292,29.137,21.028
			c34.311,11.8,48.329,29.52,48.702,55.71c0,33.938-26.191,58.666-77.838,58.666c-23.61,0-44.638-5.545-58.293-12.928l9.964-39.848
			c10.318,6.283,31.729,13.293,48.329,13.293c16.964,0,23.973-5.527,23.973-14.756C206.416,230.834,200.879,226.408,180.224,219.398
			z M401.395,333.402c0,37.131-30.197,67.348-67.328,67.348H118.422c-16.706,0-31.977-6.158-43.758-16.256
			c3.194,0.373,6.436,0.604,9.744,0.604h215.645c46.627,0,84.389-37.791,84.389-84.398V85.045c0-4.456-0.449-8.788-1.109-13.053
			c11.178,12.03,18.072,28.095,18.072,45.756v215.654H401.395z"/>
	</g>
</g>
<g>
</g>
<g>
</g>
<g>
</g>
<g>
</g>
<g>
</g>
<g>
</g>
<g>
</g>
<g>
</g>
<g>
</g>
<g>
</g>
<g>
</g>
<g>
</g>
<g>
</g>
<g>
</g>
<g>
</g>
</svg>
